<mxfile host="65bd71144e">
    <diagram name="第 1 页" id="Jj3UkCcf70LYA5oVNf9b">
        <mxGraphModel dx="1643" dy="306" grid="1" gridSize="10" guides="1" tooltips="1" connect="1" arrows="1" fold="1" page="1" pageScale="1" pageWidth="827" pageHeight="1169" math="0" shadow="0">
            <root>
                <mxCell id="0"/>
                <mxCell id="1" parent="0"/>
                <mxCell id="_R3BB7dawXil-FJ_AwLg-1" value="繁忙疏於管理的人" style="shape=umlActor;verticalLabelPosition=bottom;verticalAlign=top;html=1;" parent="1" vertex="1">
                    <mxGeometry x="30" y="150" width="30" height="60" as="geometry"/>
                </mxCell>
                <mxCell id="_R3BB7dawXil-FJ_AwLg-2" value="點擊查看日程表" style="ellipse;html=1;whiteSpace=wrap;" parent="1" vertex="1">
                    <mxGeometry x="120" y="90" width="110" height="60" as="geometry"/>
                </mxCell>
                <mxCell id="_R3BB7dawXil-FJ_AwLg-3" value="&amp;lt;&amp;lt;include&amp;gt;&amp;gt;" style="endArrow=open;startArrow=none;endFill=0;startFill=0;endSize=8;html=1;verticalAlign=bottom;dashed=1;labelBackgroundColor=none;rounded=0;entryX=0.955;entryY=0.217;entryDx=0;entryDy=0;entryPerimeter=0;" parent="1" target="_R3BB7dawXil-FJ_AwLg-2" edge="1">
                    <mxGeometry width="160" relative="1" as="geometry">
                        <mxPoint x="330" y="60" as="sourcePoint"/>
                        <mxPoint x="490" y="80" as="targetPoint"/>
                    </mxGeometry>
                </mxCell>
                <mxCell id="_R3BB7dawXil-FJ_AwLg-4" value="刪除事件" style="ellipse;html=1;whiteSpace=wrap;" parent="1" vertex="1">
                    <mxGeometry x="330" y="20" width="110" height="60" as="geometry"/>
                </mxCell>
                <mxCell id="_R3BB7dawXil-FJ_AwLg-5" value="Generalization" style="html=1;verticalAlign=bottom;labelBackgroundColor=none;endArrow=open;endFill=0;rounded=0;entryX=1;entryY=0.383;entryDx=0;entryDy=0;entryPerimeter=0;exitX=0;exitY=0.5;exitDx=0;exitDy=0;" parent="1" source="_R3BB7dawXil-FJ_AwLg-6" target="_R3BB7dawXil-FJ_AwLg-4" edge="1">
                    <mxGeometry width="160" relative="1" as="geometry">
                        <mxPoint x="600" y="43" as="sourcePoint"/>
                        <mxPoint x="610" y="70" as="targetPoint"/>
                    </mxGeometry>
                </mxCell>
                <mxCell id="_R3BB7dawXil-FJ_AwLg-6" value="&lt;div&gt;刪除完成事件&lt;/div&gt;" style="ellipse;html=1;whiteSpace=wrap;" parent="1" vertex="1">
                    <mxGeometry x="580" y="10" width="110" height="60" as="geometry"/>
                </mxCell>
                <mxCell id="_R3BB7dawXil-FJ_AwLg-7" value="" style="endArrow=none;startArrow=none;endFill=0;startFill=0;endSize=8;html=1;verticalAlign=bottom;labelBackgroundColor=none;strokeWidth=3;rounded=0;entryX=0;entryY=1;entryDx=0;entryDy=0;" parent="1" target="_R3BB7dawXil-FJ_AwLg-2" edge="1">
                    <mxGeometry width="160" relative="1" as="geometry">
                        <mxPoint x="80" y="180" as="sourcePoint"/>
                        <mxPoint x="420" y="190" as="targetPoint"/>
                    </mxGeometry>
                </mxCell>
                <mxCell id="_R3BB7dawXil-FJ_AwLg-9" value="叫AI推薦行程" style="ellipse;html=1;whiteSpace=wrap;" parent="1" vertex="1">
                    <mxGeometry x="70" y="360" width="110" height="60" as="geometry"/>
                </mxCell>
                <mxCell id="_R3BB7dawXil-FJ_AwLg-11" value="新增事件" style="ellipse;html=1;whiteSpace=wrap;" parent="1" vertex="1">
                    <mxGeometry x="140" y="240" width="110" height="60" as="geometry"/>
                </mxCell>
                <mxCell id="_R3BB7dawXil-FJ_AwLg-19" value="" style="endArrow=none;startArrow=none;endFill=0;startFill=0;endSize=8;html=1;verticalAlign=bottom;labelBackgroundColor=none;strokeWidth=3;rounded=0;entryX=0;entryY=0.5;entryDx=0;entryDy=0;" parent="1" target="_R3BB7dawXil-FJ_AwLg-11" edge="1">
                    <mxGeometry width="160" relative="1" as="geometry">
                        <mxPoint x="80" y="220" as="sourcePoint"/>
                        <mxPoint x="146" y="151" as="targetPoint"/>
                    </mxGeometry>
                </mxCell>
                <mxCell id="_R3BB7dawXil-FJ_AwLg-23" value="&amp;lt;&amp;lt;include&amp;gt;&amp;gt;" style="endArrow=open;startArrow=none;endFill=0;startFill=0;endSize=8;html=1;verticalAlign=bottom;dashed=1;labelBackgroundColor=none;rounded=0;exitX=1;exitY=0.5;exitDx=0;exitDy=0;entryX=0.027;entryY=0.783;entryDx=0;entryDy=0;entryPerimeter=0;" parent="1" source="_R3BB7dawXil-FJ_AwLg-11" target="_R3BB7dawXil-FJ_AwLg-25" edge="1">
                    <mxGeometry width="160" relative="1" as="geometry">
                        <mxPoint x="355" y="200" as="sourcePoint"/>
                        <mxPoint x="280" y="200" as="targetPoint"/>
                    </mxGeometry>
                </mxCell>
                <mxCell id="_R3BB7dawXil-FJ_AwLg-24" value="&amp;lt;&amp;lt;include&amp;gt;&amp;gt;" style="endArrow=open;startArrow=none;endFill=0;startFill=0;endSize=8;html=1;verticalAlign=bottom;dashed=1;labelBackgroundColor=none;rounded=0;exitX=0.927;exitY=0.883;exitDx=0;exitDy=0;exitPerimeter=0;entryX=0;entryY=0.5;entryDx=0;entryDy=0;" parent="1" source="_R3BB7dawXil-FJ_AwLg-2" target="_R3BB7dawXil-FJ_AwLg-25" edge="1">
                    <mxGeometry width="160" relative="1" as="geometry">
                        <mxPoint x="240" y="160" as="sourcePoint"/>
                        <mxPoint x="280" y="190" as="targetPoint"/>
                    </mxGeometry>
                </mxCell>
                <mxCell id="_R3BB7dawXil-FJ_AwLg-25" value="登入" style="ellipse;html=1;whiteSpace=wrap;" parent="1" vertex="1">
                    <mxGeometry x="240" y="160" width="110" height="60" as="geometry"/>
                </mxCell>
                <mxCell id="_R3BB7dawXil-FJ_AwLg-26" value="&lt;div&gt;編輯事件&lt;/div&gt;" style="ellipse;html=1;whiteSpace=wrap;" parent="1" vertex="1">
                    <mxGeometry x="400" y="110" width="110" height="60" as="geometry"/>
                </mxCell>
                <mxCell id="_R3BB7dawXil-FJ_AwLg-29" value="&amp;lt;&amp;lt;extend&amp;gt;&amp;gt;" style="endArrow=open;startArrow=none;endFill=0;startFill=0;endSize=8;html=1;verticalAlign=bottom;dashed=1;labelBackgroundColor=none;rounded=0;entryX=1;entryY=0.5;entryDx=0;entryDy=0;exitX=0;exitY=0.5;exitDx=0;exitDy=0;" parent="1" source="_R3BB7dawXil-FJ_AwLg-26" target="_R3BB7dawXil-FJ_AwLg-2" edge="1">
                    <mxGeometry width="160" relative="1" as="geometry">
                        <mxPoint x="405" y="98.5" as="sourcePoint"/>
                        <mxPoint x="300" y="141.5" as="targetPoint"/>
                    </mxGeometry>
                </mxCell>
                <mxCell id="_R3BB7dawXil-FJ_AwLg-38" value="Generalization" style="html=1;verticalAlign=bottom;labelBackgroundColor=none;endArrow=open;endFill=0;rounded=0;entryX=1;entryY=0.5;entryDx=0;entryDy=0;exitX=0.5;exitY=0;exitDx=0;exitDy=0;" parent="1" source="_R3BB7dawXil-FJ_AwLg-39" target="_R3BB7dawXil-FJ_AwLg-26" edge="1">
                    <mxGeometry width="160" relative="1" as="geometry">
                        <mxPoint x="535" y="420" as="sourcePoint"/>
                        <mxPoint x="535" y="350" as="targetPoint"/>
                    </mxGeometry>
                </mxCell>
                <mxCell id="_R3BB7dawXil-FJ_AwLg-39" value="編輯自身的時間、順序" style="ellipse;html=1;whiteSpace=wrap;" parent="1" vertex="1">
                    <mxGeometry x="660" y="95" width="100" height="65" as="geometry"/>
                </mxCell>
                <mxCell id="2" value="Generalization" style="html=1;verticalAlign=bottom;labelBackgroundColor=none;endArrow=open;endFill=0;rounded=0;entryX=0.5;entryY=1;entryDx=0;entryDy=0;exitX=0.5;exitY=0;exitDx=0;exitDy=0;" edge="1" parent="1" source="_R3BB7dawXil-FJ_AwLg-9" target="_R3BB7dawXil-FJ_AwLg-11">
                    <mxGeometry width="160" relative="1" as="geometry">
                        <mxPoint x="240" y="390" as="sourcePoint"/>
                        <mxPoint x="240" y="310" as="targetPoint"/>
                    </mxGeometry>
                </mxCell>
                <mxCell id="3" value="使用者新增自身行程" style="ellipse;html=1;whiteSpace=wrap;" vertex="1" parent="1">
                    <mxGeometry x="220" y="360" width="110" height="60" as="geometry"/>
                </mxCell>
                <mxCell id="5" value="Generalization" style="html=1;verticalAlign=bottom;labelBackgroundColor=none;endArrow=open;endFill=0;rounded=0;exitX=0.5;exitY=0;exitDx=0;exitDy=0;" edge="1" parent="1" source="3">
                    <mxGeometry width="160" relative="1" as="geometry">
                        <mxPoint x="135" y="370" as="sourcePoint"/>
                        <mxPoint x="200" y="300" as="targetPoint"/>
                    </mxGeometry>
                </mxCell>
                <mxCell id="6" value="Generalization" style="html=1;verticalAlign=bottom;labelBackgroundColor=none;endArrow=open;endFill=0;rounded=0;entryX=1.036;entryY=0.683;entryDx=0;entryDy=0;exitX=0.5;exitY=0;exitDx=0;exitDy=0;entryPerimeter=0;" edge="1" parent="1" source="7" target="_R3BB7dawXil-FJ_AwLg-26">
                    <mxGeometry width="160" relative="1" as="geometry">
                        <mxPoint x="535" y="495" as="sourcePoint"/>
                        <mxPoint x="510" y="215" as="targetPoint"/>
                    </mxGeometry>
                </mxCell>
                <mxCell id="7" value="AI編輯時間、順序" style="ellipse;html=1;whiteSpace=wrap;" vertex="1" parent="1">
                    <mxGeometry x="660" y="170" width="100" height="65" as="geometry"/>
                </mxCell>
            </root>
        </mxGraphModel>
    </diagram>
</mxfile>